<?xml version="1.0" encoding="UTF-8" standalone="no"?>
<!DOCTYPE svg PUBLIC "-//W3C//DTD SVG 1.1//EN"
 "http://www.w3.org/Graphics/SVG/1.1/DTD/svg11.dtd">
<!-- Generated by graphviz version 2.44.0 (0)
 -->
<!-- Title: cluster0convert_to_binary.py Pages: 1 -->
<svg width="1387pt" height="791pt"
 viewBox="0.00 0.00 1387.33 791.00" xmlns="http://www.w3.org/2000/svg" xmlns:xlink="http://www.w3.org/1999/xlink">
<g id="graph0" class="graph" transform="scale(1 1) rotate(0) translate(4 787)">
<title>cluster0convert_to_binary.py</title>
<polygon fill="white" stroke="transparent" points="-4,4 -4,-787 1383.33,-787 1383.33,4 -4,4"/>
<text text-anchor="middle" x="689.66" y="-7.8" font-family="DejaVu Sans Mono" font-size="14.00">convert_to_binary.py</text>
<g id="clust1" class="cluster">
<title>cluster_6</title>
<polygon fill="purple" stroke="purple" points="134.33,-31 134.33,-83 290.33,-83 290.33,-31 134.33,-31"/>
</g>
<g id="clust2" class="cluster">
<title>cluster0convert_to_binary</title>
<polygon fill="none" stroke="black" points="354.33,-243 354.33,-775 982.33,-775 982.33,-243 354.33,-243"/>
<text text-anchor="middle" x="668.33" y="-759.8" font-family="DejaVu Sans Mono" font-size="14.00">convert_to_binary</text>
</g>
<g id="clust3" class="cluster">
<title>cluster_KEY</title>
<polygon fill="none" stroke="black" points="990.33,-114 990.33,-546.5 1371.33,-546.5 1371.33,-114 990.33,-114"/>
<text text-anchor="middle" x="1180.83" y="-531.3" font-family="DejaVu Sans Mono" font-size="14.00">KEY</text>
</g>
<!-- 1 -->
<g id="node1" class="node">
<title>1</title>
<polygon fill="#fffb81" stroke="black" points="344.33,-516.5 80.33,-516.5 80.33,-478.5 344.33,-478.5 344.33,-516.5"/>
<text text-anchor="start" x="88.33" y="-501.3" font-family="DejaVu Sans Mono" font-size="14.00">import sys</text>
<text text-anchor="middle" x="212.33" y="-486.3" font-family="DejaVu Sans Mono" font-size="14.00">def convert_to_binary(num):...</text>
</g>
<!-- 5 -->
<g id="node2" class="node">
<title>5</title>
<polygon fill="#ff6752" stroke="black" points="212.33,-226 0.17,-208 212.33,-190 424.48,-208 212.33,-226"/>
<text text-anchor="middle" x="212.33" y="-204.3" font-family="DejaVu Sans Mono" font-size="14.00">if __name__ == &#39;__main__&#39;:</text>
</g>
<!-- 1&#45;&gt;5 -->
<g id="edge3" class="edge">
<title>1&#45;&gt;5</title>
<path fill="none" stroke="black" d="M212.33,-478.08C212.33,-428.94 212.33,-294.57 212.33,-236.42"/>
<polygon fill="black" stroke="black" points="215.83,-236.17 212.33,-226.17 208.83,-236.17 215.83,-236.17"/>
</g>
<!-- 6 -->
<g id="node3" class="node">
<title>6</title>
<polygon fill="#fffb81" stroke="black" points="290.83,-159 133.83,-159 133.83,-121 290.83,-121 290.83,-159"/>
<text text-anchor="start" x="141.83" y="-143.8" font-family="DejaVu Sans Mono" font-size="14.00">import doctest</text>
<text text-anchor="middle" x="212.33" y="-128.8" font-family="DejaVu Sans Mono" font-size="14.00">doctest.testmod()</text>
</g>
<!-- 5&#45;&gt;6 -->
<g id="edge2" class="edge">
<title>5&#45;&gt;6</title>
<path fill="none" stroke="green" d="M212.33,-189.66C212.33,-183.54 212.33,-176.49 212.33,-169.69"/>
<polygon fill="green" stroke="green" points="215.83,-169.38 212.33,-159.38 208.83,-169.38 215.83,-169.38"/>
<text text-anchor="middle" x="303.33" y="-170.8" font-family="DejaVu Sans Mono" font-size="14.00">__name__ == &#39;__main__&#39;</text>
</g>
<!-- 8 -->
<g id="node4" class="node">
<title>8</title>
<polygon fill="#e552ff" stroke="#e552ff" points="282.33,-75 154.33,-75 154.33,-79 142.33,-79 142.33,-39 282.33,-39 282.33,-75"/>
<polyline fill="none" stroke="#e552ff" points="142.33,-75 154.33,-75 "/>
<text text-anchor="middle" x="212.33" y="-53.3" font-family="DejaVu Sans Mono" font-size="14.00">doctest.testmod</text>
</g>
<!-- 6&#45;&gt;8 -->
<g id="edge1" class="edge">
<title>6&#45;&gt;8</title>
<path fill="none" stroke="black" stroke-dasharray="5,2" d="M212.33,-120.62C212.33,-110.18 212.33,-96.92 212.33,-85.29"/>
<polygon fill="black" stroke="black" points="215.83,-85.2 212.33,-75.2 208.83,-85.2 215.83,-85.2"/>
<text text-anchor="middle" x="233.33" y="-94.8" font-family="DejaVu Sans Mono" font-size="14.00">calls</text>
</g>
<!-- 3 -->
<g id="node5" class="node">
<title>3</title>
<polygon fill="#fffb81" stroke="black" points="973.83,-744 362.83,-744 362.83,-251 973.83,-251 973.83,-744"/>
<text text-anchor="start" x="370.83" y="-728.8" font-family="DejaVu Sans Mono" font-size="14.00">&quot;&quot;&quot;</text>
<text text-anchor="start" x="370.83" y="-713.8" font-family="DejaVu Sans Mono" font-size="14.00"> &#160;&#160;&#160;Purpose: &#160;&#160;&#160;&#160;&#160;&#160;&#160;Converts a decimal number to a binary representation</text>
<text text-anchor="start" x="370.83" y="-698.8" font-family="DejaVu Sans Mono" font-size="14.00"> &#160;&#160;&#160;Parameters: &#160;&#160;&#160;&#160;A decimal number, as an integer</text>
<text text-anchor="start" x="370.83" y="-683.8" font-family="DejaVu Sans Mono" font-size="14.00"> &#160;&#160;&#160;User Input: &#160;&#160;&#160;&#160;No</text>
<text text-anchor="start" x="370.83" y="-668.8" font-family="DejaVu Sans Mono" font-size="14.00"> &#160;&#160;&#160;Prints: &#160;&#160;&#160;&#160;&#160;&#160;&#160;&#160;Nothing</text>
<text text-anchor="start" x="370.83" y="-653.8" font-family="DejaVu Sans Mono" font-size="14.00"> &#160;&#160;&#160;Returns: &#160;&#160;&#160;&#160;&#160;&#160;&#160;Result as a string of 1s and 0s</text>
<text text-anchor="start" x="370.83" y="-638.8" font-family="DejaVu Sans Mono" font-size="14.00"> &#160;&#160;&#160;Modifies: &#160;&#160;&#160;&#160;&#160;&#160;Nothing</text>
<text text-anchor="start" x="370.83" y="-623.8" font-family="DejaVu Sans Mono" font-size="14.00"> &#160;&#160;&#160;Calls: &#160;&#160;&#160;&#160;&#160;&#160;&#160;&#160;&#160;Basic python only</text>
<text text-anchor="start" x="370.83" y="-608.8" font-family="DejaVu Sans Mono" font-size="14.00"> &#160;&#160;&#160;Tests: &#160;&#160;&#160;&#160;&#160;&#160;&#160;&#160;&#160;./unit_tests/*</text>
<text text-anchor="start" x="370.83" y="-593.8" font-family="DejaVu Sans Mono" font-size="14.00"> &#160;&#160;&#160;Status: &#160;&#160;&#160;&#160;&#160;&#160;&#160;&#160;Done!</text>
<text text-anchor="start" x="370.83" y="-562.8" font-family="DejaVu Sans Mono" font-size="14.00"> &#160;&#160;&#160;Usage illustrated via some simple doctests:</text>
<text text-anchor="start" x="370.83" y="-547.8" font-family="DejaVu Sans Mono" font-size="14.00"> &#160;&#160;&#160;&gt;&gt;&gt; convert_to_binary(1)</text>
<text text-anchor="start" x="370.83" y="-532.8" font-family="DejaVu Sans Mono" font-size="14.00"> &#160;&#160;&#160;&#39;1&#39;</text>
<text text-anchor="start" x="370.83" y="-501.8" font-family="DejaVu Sans Mono" font-size="14.00"> &#160;&#160;&#160;&gt;&gt;&gt; convert_to_binary(10)</text>
<text text-anchor="start" x="370.83" y="-486.8" font-family="DejaVu Sans Mono" font-size="14.00"> &#160;&#160;&#160;&#39;1010&#39;</text>
<text text-anchor="start" x="370.83" y="-455.8" font-family="DejaVu Sans Mono" font-size="14.00"> &#160;&#160;&#160;&gt;&gt;&gt; import random</text>
<text text-anchor="start" x="370.83" y="-440.8" font-family="DejaVu Sans Mono" font-size="14.00"> &#160;&#160;&#160;&gt;&gt;&gt; for _ in range(5):</text>
<text text-anchor="start" x="370.83" y="-425.8" font-family="DejaVu Sans Mono" font-size="14.00"> &#160;&#160;&#160;... &#160;&#160;&#160;&#160;num = random.randint(0, 200)</text>
<text text-anchor="start" x="370.83" y="-410.8" font-family="DejaVu Sans Mono" font-size="14.00"> &#160;&#160;&#160;... &#160;&#160;&#160;&#160;assert convert_to_binary(num) == bin(num)[2:]</text>
<text text-anchor="start" x="370.83" y="-379.8" font-family="DejaVu Sans Mono" font-size="14.00"> &#160;&#160;&#160;&gt;&gt;&gt; for _ in range(2):</text>
<text text-anchor="start" x="370.83" y="-364.8" font-family="DejaVu Sans Mono" font-size="14.00"> &#160;&#160;&#160;... &#160;&#160;&#160;&#160;num = random.randint(0, 200)</text>
<text text-anchor="start" x="370.83" y="-349.8" font-family="DejaVu Sans Mono" font-size="14.00"> &#160;&#160;&#160;... &#160;&#160;&#160;&#160;convert_to_binary(num) == bin(num)[2:]</text>
<text text-anchor="start" x="370.83" y="-334.8" font-family="DejaVu Sans Mono" font-size="14.00"> &#160;&#160;&#160;True</text>
<text text-anchor="start" x="370.83" y="-319.8" font-family="DejaVu Sans Mono" font-size="14.00"> &#160;&#160;&#160;True</text>
<text text-anchor="start" x="370.83" y="-288.8" font-family="DejaVu Sans Mono" font-size="14.00"> &#160;&#160;&#160;&gt;&gt;&gt; print(&quot;Unlike other frameworks, doctest does stdout easily&quot;)</text>
<text text-anchor="start" x="370.83" y="-273.8" font-family="DejaVu Sans Mono" font-size="14.00"> &#160;&#160;&#160;Unlike other frameworks, doctest does stdout easily</text>
<text text-anchor="middle" x="668.33" y="-258.8" font-family="DejaVu Sans Mono" font-size="14.00"> &#160;&#160;&#160;&quot;&quot;&quot;</text>
</g>
<!-- input -->
<g id="node6" class="node">
<title>input</title>
<polygon fill="#afeeee" stroke="black" points="1363.37,-226 1275.81,-226 1253.28,-190 1340.84,-190 1363.37,-226"/>
<text text-anchor="middle" x="1308.33" y="-204.3" font-family="DejaVu Sans Mono" font-size="14.00">input</text>
</g>
<!-- call -->
<g id="node11" class="node">
<title>call</title>
<polygon fill="#e552ff" stroke="black" points="1335.33,-158 1293.33,-158 1293.33,-162 1281.33,-162 1281.33,-122 1335.33,-122 1335.33,-158"/>
<polyline fill="none" stroke="black" points="1281.33,-158 1293.33,-158 "/>
<text text-anchor="middle" x="1308.33" y="-136.3" font-family="DejaVu Sans Mono" font-size="14.00">call</text>
</g>
<!-- input&#45;&gt;call -->
<!-- default -->
<g id="node7" class="node">
<title>default</title>
<polygon fill="#fffb81" stroke="black" points="1209.33,-158 1135.33,-158 1135.33,-122 1209.33,-122 1209.33,-158"/>
<text text-anchor="middle" x="1172.33" y="-136.3" font-family="DejaVu Sans Mono" font-size="14.00">default</text>
</g>
<!-- if -->
<g id="node8" class="node">
<title>if</title>
<polygon fill="#ff6752" stroke="black" points="1308.33,-515.5 1278.16,-497.5 1308.33,-479.5 1338.49,-497.5 1308.33,-515.5"/>
<text text-anchor="middle" x="1308.33" y="-493.8" font-family="DejaVu Sans Mono" font-size="14.00">if</text>
</g>
<!-- if&#45;&gt;input -->
<!-- for -->
<g id="node9" class="node">
<title>for</title>
<polygon fill="#ffbe52" stroke="black" points="1258.87,-497.5 1243.6,-515.5 1213.05,-515.5 1197.78,-497.5 1213.05,-479.5 1243.6,-479.5 1258.87,-497.5"/>
<text text-anchor="middle" x="1228.33" y="-493.8" font-family="DejaVu Sans Mono" font-size="14.00">for</text>
</g>
<!-- return -->
<g id="node12" class="node">
<title>return</title>
<polygon fill="#98fb98" stroke="black" points="1235.11,-226 1135.23,-226 1109.54,-190 1209.42,-190 1235.11,-226"/>
<text text-anchor="middle" x="1172.33" y="-204.3" font-family="DejaVu Sans Mono" font-size="14.00">return</text>
</g>
<!-- for&#45;&gt;return -->
<!-- while -->
<g id="node10" class="node">
<title>while</title>
<polygon fill="#ffbe52" stroke="black" points="1179.88,-497.5 1158.1,-515.5 1114.55,-515.5 1092.77,-497.5 1114.55,-479.5 1158.1,-479.5 1179.88,-497.5"/>
<text text-anchor="middle" x="1136.33" y="-493.8" font-family="DejaVu Sans Mono" font-size="14.00">while</text>
</g>
<!-- return&#45;&gt;default -->
<!-- try -->
<g id="node13" class="node">
<title>try</title>
<polygon fill="orange" stroke="black" points="1037.33,-515.5 999.45,-497.5 1037.33,-479.5 1075.2,-497.5 1037.33,-515.5"/>
<polyline fill="none" stroke="black" points="1010.29,-502.65 1010.29,-492.35 "/>
<polyline fill="none" stroke="black" points="1026.49,-484.65 1048.16,-484.65 "/>
<polyline fill="none" stroke="black" points="1064.36,-492.35 1064.36,-502.65 "/>
<polyline fill="none" stroke="black" points="1048.16,-510.35 1026.49,-510.35 "/>
<text text-anchor="middle" x="1037.33" y="-493.8" font-family="DejaVu Sans Mono" font-size="14.00">try</text>
</g>
<!-- raise -->
<g id="node14" class="node">
<title>raise</title>
<polygon fill="#98fb98" stroke="black" points="1092.02,-213.56 1045.33,-226 998.63,-213.56 998.68,-193.44 1091.97,-193.44 1092.02,-213.56"/>
<text text-anchor="middle" x="1045.33" y="-204.3" font-family="DejaVu Sans Mono" font-size="14.00">raise</text>
</g>
<!-- try&#45;&gt;raise -->
</g>
</svg>
