<?xml version="1.0" encoding="UTF-8" standalone="no"?>
<!DOCTYPE svg PUBLIC "-//W3C//DTD SVG 1.1//EN"
 "http://www.w3.org/Graphics/SVG/1.1/DTD/svg11.dtd">
<!-- Generated by graphviz version 2.44.0 (0)
 -->
<!-- Title: cluster0convert_to_binary.py Pages: 1 -->
<svg width="2012pt" height="1003pt"
 viewBox="0.00 0.00 2012.00 1003.00" xmlns="http://www.w3.org/2000/svg" xmlns:xlink="http://www.w3.org/1999/xlink">
<g id="graph0" class="graph" transform="scale(1 1) rotate(0) translate(4 999)">
<title>cluster0convert_to_binary.py</title>
<polygon fill="white" stroke="transparent" points="-4,4 -4,-999 2008,-999 2008,4 -4,4"/>
<text text-anchor="middle" x="1002" y="-7.8" font-family="DejaVu Sans Mono" font-size="14.00">convert_to_binary.py</text>
<g id="clust1" class="cluster">
<title>cluster_17</title>
<polygon fill="purple" stroke="purple" points="8,-251 8,-303 164,-303 164,-251 8,-251"/>
</g>
<g id="clust2" class="cluster">
<title>cluster_20</title>
<polygon fill="purple" stroke="purple" points="57,-167.5 57,-219.5 127,-219.5 127,-167.5 57,-167.5"/>
</g>
<g id="clust3" class="cluster">
<title>cluster_22</title>
<polygon fill="purple" stroke="purple" points="239,-31 239,-136 595,-136 595,-31 239,-31"/>
</g>
<g id="clust4" class="cluster">
<title>cluster_24</title>
<polygon fill="purple" stroke="purple" points="634,-31 634,-136 884,-136 884,-31 634,-31"/>
</g>
<g id="clust5" class="cluster">
<title>cluster0convert_to_binary</title>
<polygon fill="none" stroke="black" points="949,-31 949,-987 1607,-987 1607,-31 949,-31"/>
<text text-anchor="middle" x="1278" y="-971.8" font-family="DejaVu Sans Mono" font-size="14.00">convert_to_binary</text>
</g>
<g id="clust6" class="cluster">
<title>cluster_KEY</title>
<polygon fill="none" stroke="black" points="1615,-334 1615,-758.5 1996,-758.5 1996,-334 1615,-334"/>
<text text-anchor="middle" x="1805.5" y="-743.3" font-family="DejaVu Sans Mono" font-size="14.00">KEY</text>
</g>
<!-- 1 -->
<g id="node1" class="node">
<title>1</title>
<polygon fill="#fffb81" stroke="black" points="397.5,-728.5 42.5,-728.5 42.5,-690.5 397.5,-690.5 397.5,-728.5"/>
<text text-anchor="start" x="50.5" y="-713.3" font-family="DejaVu Sans Mono" font-size="14.00">import sys</text>
<text text-anchor="middle" x="220" y="-698.3" font-family="DejaVu Sans Mono" font-size="14.00">def convert_to_binary(num: int) &#45;&gt;str:...</text>
</g>
<!-- 16 -->
<g id="node2" class="node">
<title>16</title>
<polygon fill="#ff6752" stroke="black" points="220,-446 7.85,-428 220,-410 432.15,-428 220,-446"/>
<text text-anchor="middle" x="220" y="-424.3" font-family="DejaVu Sans Mono" font-size="14.00">if __name__ == &#39;__main__&#39;:</text>
</g>
<!-- 1&#45;&gt;16 -->
<g id="edge17" class="edge">
<title>1&#45;&gt;16</title>
<path fill="none" stroke="black" d="M220,-690.16C220,-642.24 220,-513.08 220,-456.35"/>
<polygon fill="black" stroke="black" points="223.5,-456.33 220,-446.33 216.5,-456.33 223.5,-456.33"/>
</g>
<!-- 17 -->
<g id="node3" class="node">
<title>17</title>
<polygon fill="#fffb81" stroke="black" points="298.5,-379 141.5,-379 141.5,-341 298.5,-341 298.5,-379"/>
<text text-anchor="start" x="149.5" y="-363.8" font-family="DejaVu Sans Mono" font-size="14.00">import doctest</text>
<text text-anchor="middle" x="220" y="-348.8" font-family="DejaVu Sans Mono" font-size="14.00">doctest.testmod()</text>
</g>
<!-- 16&#45;&gt;17 -->
<g id="edge16" class="edge">
<title>16&#45;&gt;17</title>
<path fill="none" stroke="green" d="M220,-409.66C220,-403.54 220,-396.49 220,-389.69"/>
<polygon fill="green" stroke="green" points="223.5,-389.38 220,-379.38 216.5,-389.38 223.5,-389.38"/>
<text text-anchor="middle" x="311" y="-390.8" font-family="DejaVu Sans Mono" font-size="14.00">__name__ == &#39;__main__&#39;</text>
</g>
<!-- 19 -->
<g id="node4" class="node">
<title>19</title>
<polygon fill="#e552ff" stroke="#e552ff" points="156,-295 28,-295 28,-299 16,-299 16,-259 156,-259 156,-295"/>
<polyline fill="none" stroke="#e552ff" points="16,-295 28,-295 "/>
<text text-anchor="middle" x="86" y="-273.3" font-family="DejaVu Sans Mono" font-size="14.00">doctest.testmod</text>
</g>
<!-- 17&#45;&gt;19 -->
<g id="edge1" class="edge">
<title>17&#45;&gt;19</title>
<path fill="none" stroke="black" stroke-dasharray="5,2" d="M189.93,-340.82C170.08,-328.82 143.94,-313.02 122.84,-300.27"/>
<polygon fill="black" stroke="black" points="124.51,-297.19 114.14,-295.01 120.89,-303.18 124.51,-297.19"/>
<text text-anchor="middle" x="187" y="-314.8" font-family="DejaVu Sans Mono" font-size="14.00">calls</text>
</g>
<!-- 20 -->
<g id="node5" class="node">
<title>20</title>
<polygon fill="#ff6752" stroke="black" points="356,-295 174.01,-277 356,-259 537.99,-277 356,-295"/>
<text text-anchor="middle" x="356" y="-273.3" font-family="DejaVu Sans Mono" font-size="14.00">if len(sys.argv) == 3:</text>
</g>
<!-- 17&#45;&gt;20 -->
<g id="edge15" class="edge">
<title>17&#45;&gt;20</title>
<path fill="none" stroke="black" d="M250.52,-340.82C272,-328.03 300.72,-310.92 322.78,-297.79"/>
<polygon fill="black" stroke="black" points="324.67,-300.73 331.47,-292.61 321.09,-294.72 324.67,-300.73"/>
</g>
<!-- 21 -->
<g id="node6" class="node">
<title>21</title>
<polygon fill="#e552ff" stroke="#e552ff" points="119,-211.5 77,-211.5 77,-215.5 65,-215.5 65,-175.5 119,-175.5 119,-211.5"/>
<polyline fill="none" stroke="#e552ff" points="65,-211.5 77,-211.5 "/>
<text text-anchor="middle" x="92" y="-189.8" font-family="DejaVu Sans Mono" font-size="14.00">len</text>
</g>
<!-- 20&#45;&gt;21 -->
<g id="edge2" class="edge">
<title>20&#45;&gt;21</title>
<path fill="none" stroke="black" stroke-dasharray="5,2" d="M286.16,-265.85C239.84,-257.45 178.51,-243.08 128,-220 125.96,-219.07 123.92,-218.02 121.9,-216.89"/>
<polygon fill="black" stroke="black" points="123.63,-213.84 113.29,-211.53 119.93,-219.78 123.63,-213.84"/>
<text text-anchor="middle" x="210" y="-231.8" font-family="DejaVu Sans Mono" font-size="14.00">calls</text>
</g>
<!-- 22 -->
<g id="node7" class="node">
<title>22</title>
<polygon fill="#fffb81" stroke="black" points="574.5,-220 137.5,-220 137.5,-167 574.5,-167 574.5,-220"/>
<text text-anchor="start" x="145.5" y="-204.8" font-family="DejaVu Sans Mono" font-size="14.00">num_to_convert = int(finput.read())</text>
<text text-anchor="middle" x="356" y="-189.8" font-family="DejaVu Sans Mono" font-size="14.00">foutput.write(convert_to_binary(num_to_convert) + &#39;</text>
<text text-anchor="middle" x="356" y="-174.8" font-family="DejaVu Sans Mono" font-size="14.00">&#39;)</text>
</g>
<!-- 20&#45;&gt;22 -->
<g id="edge9" class="edge">
<title>20&#45;&gt;22</title>
<path fill="none" stroke="green" d="M356,-258.72C356,-250.39 356,-240.09 356,-230.19"/>
<polygon fill="green" stroke="green" points="359.5,-230.12 356,-220.12 352.5,-230.12 359.5,-230.12"/>
<text text-anchor="middle" x="430.5" y="-231.8" font-family="DejaVu Sans Mono" font-size="14.00">len(sys.argv) == 3</text>
</g>
<!-- 24 -->
<g id="node14" class="node">
<title>24</title>
<polygon fill="#fffb81" stroke="black" points="939.5,-212.5 592.5,-212.5 592.5,-174.5 939.5,-174.5 939.5,-212.5"/>
<text text-anchor="start" x="600.5" y="-197.3" font-family="DejaVu Sans Mono" font-size="14.00">num_to_convert = int(input())</text>
<text text-anchor="middle" x="766" y="-182.3" font-family="DejaVu Sans Mono" font-size="14.00">print(convert_to_binary(num_to_convert))</text>
</g>
<!-- 20&#45;&gt;24 -->
<g id="edge14" class="edge">
<title>20&#45;&gt;24</title>
<path fill="none" stroke="red" d="M413.44,-264.58C478.64,-251.62 586.21,-230.24 665.41,-214.5"/>
<polygon fill="red" stroke="red" points="666.28,-217.89 675.41,-212.51 664.92,-211.02 666.28,-217.89"/>
<text text-anchor="middle" x="668" y="-231.8" font-family="DejaVu Sans Mono" font-size="14.00">(len(sys.argv) != 3)</text>
</g>
<!-- 29 -->
<g id="node8" class="node">
<title>29</title>
<polygon fill="#e552ff" stroke="#e552ff" points="301,-128 259,-128 259,-132 247,-132 247,-92 301,-92 301,-128"/>
<polyline fill="none" stroke="#e552ff" points="247,-128 259,-128 "/>
<text text-anchor="middle" x="274" y="-106.3" font-family="DejaVu Sans Mono" font-size="14.00">open</text>
</g>
<!-- 22&#45;&gt;29 -->
<g id="edge3" class="edge">
<title>22&#45;&gt;29</title>
<path fill="none" stroke="black" stroke-dasharray="5,2" d="M313.69,-166.8C310.63,-164.32 307.69,-161.71 305,-159 298.57,-152.52 292.76,-144.5 287.95,-136.88"/>
<polygon fill="black" stroke="black" points="290.92,-135.03 282.79,-128.24 284.91,-138.62 290.92,-135.03"/>
<text text-anchor="middle" x="326" y="-147.8" font-family="DejaVu Sans Mono" font-size="14.00">calls</text>
</g>
<!-- 30 -->
<g id="node9" class="node">
<title>30</title>
<polygon fill="#e552ff" stroke="#e552ff" points="373,-128 331,-128 331,-132 319,-132 319,-92 373,-92 373,-128"/>
<polyline fill="none" stroke="#e552ff" points="319,-128 331,-128 "/>
<text text-anchor="middle" x="346" y="-106.3" font-family="DejaVu Sans Mono" font-size="14.00">int</text>
</g>
<!-- 22&#45;&gt;30 -->
<g id="edge4" class="edge">
<title>22&#45;&gt;30</title>
<path fill="none" stroke="black" stroke-dasharray="5,2" d="M352.84,-166.71C351.73,-157.66 350.47,-147.47 349.35,-138.3"/>
<polygon fill="black" stroke="black" points="352.79,-137.63 348.1,-128.13 345.85,-138.49 352.79,-137.63"/>
<text text-anchor="middle" x="373" y="-147.8" font-family="DejaVu Sans Mono" font-size="14.00">calls</text>
</g>
<!-- 32 -->
<g id="node10" class="node">
<title>32</title>
<polygon fill="#e552ff" stroke="#e552ff" points="445,-128 403,-128 403,-132 391,-132 391,-92 445,-92 445,-128"/>
<polyline fill="none" stroke="#e552ff" points="391,-128 403,-128 "/>
<text text-anchor="middle" x="418" y="-106.3" font-family="DejaVu Sans Mono" font-size="14.00">open</text>
</g>
<!-- 22&#45;&gt;32 -->
<g id="edge5" class="edge">
<title>22&#45;&gt;32</title>
<path fill="none" stroke="black" stroke-dasharray="5,2" d="M387.3,-166.76C389.69,-164.25 391.96,-161.65 394,-159 398.92,-152.6 403.26,-145.04 406.85,-137.83"/>
<polygon fill="black" stroke="black" points="410.21,-138.91 411.26,-128.37 403.86,-135.95 410.21,-138.91"/>
<text text-anchor="middle" x="425" y="-147.8" font-family="DejaVu Sans Mono" font-size="14.00">calls</text>
</g>
<!-- 33 -->
<g id="node11" class="node">
<title>33</title>
<polygon fill="#e552ff" stroke="#e552ff" points="587,-128 475,-128 475,-132 463,-132 463,-92 587,-92 587,-128"/>
<polyline fill="none" stroke="#e552ff" points="463,-128 475,-128 "/>
<text text-anchor="middle" x="525" y="-106.3" font-family="DejaVu Sans Mono" font-size="14.00">foutput.write</text>
</g>
<!-- 22&#45;&gt;33 -->
<g id="edge6" class="edge">
<title>22&#45;&gt;33</title>
<path fill="none" stroke="black" stroke-dasharray="5,2" d="M432.54,-166.88C438.52,-164.38 444.4,-161.75 450,-159 464.66,-151.81 479.99,-142.38 492.94,-133.79"/>
<polygon fill="black" stroke="black" points="495.17,-136.51 501.49,-128.01 491.25,-130.71 495.17,-136.51"/>
<text text-anchor="middle" x="496" y="-147.8" font-family="DejaVu Sans Mono" font-size="14.00">calls</text>
</g>
<!-- 31 -->
<g id="node12" class="node">
<title>31</title>
<polygon fill="#e552ff" stroke="#e552ff" points="399.5,-75 304.5,-75 304.5,-79 292.5,-79 292.5,-39 399.5,-39 399.5,-75"/>
<polyline fill="none" stroke="#e552ff" points="292.5,-75 304.5,-75 "/>
<text text-anchor="middle" x="346" y="-53.3" font-family="DejaVu Sans Mono" font-size="14.00">finput.read</text>
</g>
<!-- 30&#45;&gt;31 -->
<g id="edge7" class="edge">
<title>30&#45;&gt;31</title>
<path fill="none" stroke="black" d="M346,-91.73C346,-89.66 346,-87.5 346,-85.32"/>
<polygon fill="black" stroke="black" points="349.5,-85.25 346,-75.25 342.5,-85.25 349.5,-85.25"/>
</g>
<!-- 34 -->
<g id="node13" class="node">
<title>34</title>
<polygon fill="#e552ff" stroke="#e552ff" points="586.5,-75 441.5,-75 441.5,-79 429.5,-79 429.5,-39 586.5,-39 586.5,-75"/>
<polyline fill="none" stroke="#e552ff" points="429.5,-75 441.5,-75 "/>
<text text-anchor="middle" x="508" y="-53.3" font-family="DejaVu Sans Mono" font-size="14.00">convert_to_binary</text>
</g>
<!-- 33&#45;&gt;34 -->
<g id="edge8" class="edge">
<title>33&#45;&gt;34</title>
<path fill="none" stroke="black" d="M519.24,-91.73C518.5,-89.49 517.72,-87.15 516.93,-84.8"/>
<polygon fill="black" stroke="black" points="520.23,-83.63 513.75,-75.25 513.59,-85.84 520.23,-83.63"/>
</g>
<!-- 25 -->
<g id="node15" class="node">
<title>25</title>
<polygon fill="#e552ff" stroke="#e552ff" points="715,-128 673,-128 673,-132 661,-132 661,-92 715,-92 715,-128"/>
<polyline fill="none" stroke="#e552ff" points="661,-128 673,-128 "/>
<text text-anchor="middle" x="688" y="-106.3" font-family="DejaVu Sans Mono" font-size="14.00">int</text>
</g>
<!-- 24&#45;&gt;25 -->
<g id="edge10" class="edge">
<title>24&#45;&gt;25</title>
<path fill="none" stroke="black" stroke-dasharray="5,2" d="M744.82,-174.17C739.53,-169.37 733.95,-164.1 729,-159 722.05,-151.84 714.85,-143.7 708.47,-136.19"/>
<polygon fill="black" stroke="black" points="711.01,-133.77 701.91,-128.35 705.64,-138.26 711.01,-133.77"/>
<text text-anchor="middle" x="750" y="-147.8" font-family="DejaVu Sans Mono" font-size="14.00">calls</text>
</g>
<!-- 27 -->
<g id="node16" class="node">
<title>27</title>
<polygon fill="#e552ff" stroke="#e552ff" points="817,-128 771,-128 771,-132 759,-132 759,-92 817,-92 817,-128"/>
<polyline fill="none" stroke="#e552ff" points="759,-128 771,-128 "/>
<text text-anchor="middle" x="788" y="-106.3" font-family="DejaVu Sans Mono" font-size="14.00">print</text>
</g>
<!-- 24&#45;&gt;27 -->
<g id="edge11" class="edge">
<title>24&#45;&gt;27</title>
<path fill="none" stroke="black" stroke-dasharray="5,2" d="M770.88,-174.41C773.76,-163.75 777.46,-150.05 780.68,-138.11"/>
<polygon fill="black" stroke="black" points="784.13,-138.77 783.36,-128.2 777.37,-136.94 784.13,-138.77"/>
<text text-anchor="middle" x="799" y="-147.8" font-family="DejaVu Sans Mono" font-size="14.00">calls</text>
</g>
<!-- 26 -->
<g id="node17" class="node">
<title>26</title>
<polygon fill="#e552ff" stroke="#e552ff" points="700,-75 654,-75 654,-79 642,-79 642,-39 700,-39 700,-75"/>
<polyline fill="none" stroke="#e552ff" points="642,-75 654,-75 "/>
<text text-anchor="middle" x="671" y="-53.3" font-family="DejaVu Sans Mono" font-size="14.00">input</text>
</g>
<!-- 25&#45;&gt;26 -->
<g id="edge12" class="edge">
<title>25&#45;&gt;26</title>
<path fill="none" stroke="black" d="M682.24,-91.73C681.5,-89.49 680.72,-87.15 679.93,-84.8"/>
<polygon fill="black" stroke="black" points="683.23,-83.63 676.75,-75.25 676.59,-85.84 683.23,-83.63"/>
</g>
<!-- 28 -->
<g id="node18" class="node">
<title>28</title>
<polygon fill="#e552ff" stroke="#e552ff" points="875.5,-75 730.5,-75 730.5,-79 718.5,-79 718.5,-39 875.5,-39 875.5,-75"/>
<polyline fill="none" stroke="#e552ff" points="718.5,-75 730.5,-75 "/>
<text text-anchor="middle" x="797" y="-53.3" font-family="DejaVu Sans Mono" font-size="14.00">convert_to_binary</text>
</g>
<!-- 27&#45;&gt;28 -->
<g id="edge13" class="edge">
<title>27&#45;&gt;28</title>
<path fill="none" stroke="black" d="M791.05,-91.73C791.41,-89.66 791.79,-87.5 792.18,-85.32"/>
<polygon fill="black" stroke="black" points="795.66,-85.7 793.96,-75.25 788.77,-84.49 795.66,-85.7"/>
</g>
<!-- 3 -->
<g id="node19" class="node">
<title>3</title>
<polygon fill="#fffb81" stroke="black" points="1583.5,-956 972.5,-956 972.5,-463 1583.5,-463 1583.5,-956"/>
<text text-anchor="start" x="980.5" y="-940.8" font-family="DejaVu Sans Mono" font-size="14.00">&quot;&quot;&quot;</text>
<text text-anchor="start" x="980.5" y="-925.8" font-family="DejaVu Sans Mono" font-size="14.00"> &#160;&#160;&#160;Purpose: &#160;&#160;&#160;&#160;&#160;&#160;&#160;Converts a decimal number to a binary representation</text>
<text text-anchor="start" x="980.5" y="-910.8" font-family="DejaVu Sans Mono" font-size="14.00"> &#160;&#160;&#160;Parameters: &#160;&#160;&#160;&#160;A decimal number, as an integer</text>
<text text-anchor="start" x="980.5" y="-895.8" font-family="DejaVu Sans Mono" font-size="14.00"> &#160;&#160;&#160;User Input: &#160;&#160;&#160;&#160;No</text>
<text text-anchor="start" x="980.5" y="-880.8" font-family="DejaVu Sans Mono" font-size="14.00"> &#160;&#160;&#160;Prints: &#160;&#160;&#160;&#160;&#160;&#160;&#160;&#160;Nothing</text>
<text text-anchor="start" x="980.5" y="-865.8" font-family="DejaVu Sans Mono" font-size="14.00"> &#160;&#160;&#160;Returns: &#160;&#160;&#160;&#160;&#160;&#160;&#160;Result as a string of 1s and 0s</text>
<text text-anchor="start" x="980.5" y="-850.8" font-family="DejaVu Sans Mono" font-size="14.00"> &#160;&#160;&#160;Modifies: &#160;&#160;&#160;&#160;&#160;&#160;Nothing</text>
<text text-anchor="start" x="980.5" y="-835.8" font-family="DejaVu Sans Mono" font-size="14.00"> &#160;&#160;&#160;Calls: &#160;&#160;&#160;&#160;&#160;&#160;&#160;&#160;&#160;Basic python only</text>
<text text-anchor="start" x="980.5" y="-820.8" font-family="DejaVu Sans Mono" font-size="14.00"> &#160;&#160;&#160;Tests: &#160;&#160;&#160;&#160;&#160;&#160;&#160;&#160;&#160;./unit_tests/*</text>
<text text-anchor="start" x="980.5" y="-805.8" font-family="DejaVu Sans Mono" font-size="14.00"> &#160;&#160;&#160;Status: &#160;&#160;&#160;&#160;&#160;&#160;&#160;&#160;Done!</text>
<text text-anchor="start" x="980.5" y="-774.8" font-family="DejaVu Sans Mono" font-size="14.00"> &#160;&#160;&#160;Usage illustrated via some simple doctests:</text>
<text text-anchor="start" x="980.5" y="-759.8" font-family="DejaVu Sans Mono" font-size="14.00"> &#160;&#160;&#160;&gt;&gt;&gt; convert_to_binary(1)</text>
<text text-anchor="start" x="980.5" y="-744.8" font-family="DejaVu Sans Mono" font-size="14.00"> &#160;&#160;&#160;&#39;1&#39;</text>
<text text-anchor="start" x="980.5" y="-713.8" font-family="DejaVu Sans Mono" font-size="14.00"> &#160;&#160;&#160;&gt;&gt;&gt; convert_to_binary(10)</text>
<text text-anchor="start" x="980.5" y="-698.8" font-family="DejaVu Sans Mono" font-size="14.00"> &#160;&#160;&#160;&#39;1010&#39;</text>
<text text-anchor="start" x="980.5" y="-667.8" font-family="DejaVu Sans Mono" font-size="14.00"> &#160;&#160;&#160;&gt;&gt;&gt; import random</text>
<text text-anchor="start" x="980.5" y="-652.8" font-family="DejaVu Sans Mono" font-size="14.00"> &#160;&#160;&#160;&gt;&gt;&gt; for _ in range(5):</text>
<text text-anchor="start" x="980.5" y="-637.8" font-family="DejaVu Sans Mono" font-size="14.00"> &#160;&#160;&#160;... &#160;&#160;&#160;&#160;num = random.randint(0, 200)</text>
<text text-anchor="start" x="980.5" y="-622.8" font-family="DejaVu Sans Mono" font-size="14.00"> &#160;&#160;&#160;... &#160;&#160;&#160;&#160;assert convert_to_binary(num) == bin(num)[2:]</text>
<text text-anchor="start" x="980.5" y="-591.8" font-family="DejaVu Sans Mono" font-size="14.00"> &#160;&#160;&#160;&gt;&gt;&gt; for _ in range(2):</text>
<text text-anchor="start" x="980.5" y="-576.8" font-family="DejaVu Sans Mono" font-size="14.00"> &#160;&#160;&#160;... &#160;&#160;&#160;&#160;num = random.randint(0, 200)</text>
<text text-anchor="start" x="980.5" y="-561.8" font-family="DejaVu Sans Mono" font-size="14.00"> &#160;&#160;&#160;... &#160;&#160;&#160;&#160;convert_to_binary(num) == bin(num)[2:]</text>
<text text-anchor="start" x="980.5" y="-546.8" font-family="DejaVu Sans Mono" font-size="14.00"> &#160;&#160;&#160;True</text>
<text text-anchor="start" x="980.5" y="-531.8" font-family="DejaVu Sans Mono" font-size="14.00"> &#160;&#160;&#160;True</text>
<text text-anchor="start" x="980.5" y="-500.8" font-family="DejaVu Sans Mono" font-size="14.00"> &#160;&#160;&#160;&gt;&gt;&gt; print(&quot;Unlike other frameworks, doctest does stdout easily&quot;)</text>
<text text-anchor="start" x="980.5" y="-485.8" font-family="DejaVu Sans Mono" font-size="14.00"> &#160;&#160;&#160;Unlike other frameworks, doctest does stdout easily</text>
<text text-anchor="middle" x="1278" y="-470.8" font-family="DejaVu Sans Mono" font-size="14.00"> &#160;&#160;&#160;&quot;&quot;&quot;</text>
</g>
<!-- 4 -->
<g id="node20" class="node">
<title>4</title>
<polygon fill="#ff6752" stroke="black" points="1278,-446 1171.26,-428 1278,-410 1384.74,-428 1278,-446"/>
<text text-anchor="middle" x="1278" y="-424.3" font-family="DejaVu Sans Mono" font-size="14.00">if num == 0:</text>
</g>
<!-- 3&#45;&gt;4 -->
<g id="edge28" class="edge">
<title>3&#45;&gt;4</title>
<path fill="none" stroke="black" d="M1278,-462.99C1278,-460.72 1278,-458.54 1278,-456.46"/>
<polygon fill="black" stroke="black" points="1281.5,-456.28 1278,-446.28 1274.5,-456.28 1281.5,-456.28"/>
</g>
<!-- 5 -->
<g id="node21" class="node">
<title>5</title>
<polygon fill="#98fb98" stroke="black" points="1342.18,-378 1192.36,-378 1153.82,-342 1303.64,-342 1342.18,-378"/>
<text text-anchor="middle" x="1248" y="-356.3" font-family="DejaVu Sans Mono" font-size="14.00">return &#39;0&#39;</text>
</g>
<!-- 4&#45;&gt;5 -->
<g id="edge18" class="edge">
<title>4&#45;&gt;5</title>
<path fill="none" stroke="green" d="M1270.74,-411.02C1267.53,-403.97 1263.68,-395.49 1260.06,-387.53"/>
<polygon fill="green" stroke="green" points="1263.15,-385.87 1255.83,-378.22 1256.78,-388.77 1263.15,-385.87"/>
<text text-anchor="middle" x="1299.5" y="-390.8" font-family="DejaVu Sans Mono" font-size="14.00">num == 0</text>
</g>
<!-- 6 -->
<g id="node22" class="node">
<title>6</title>
<polygon fill="#fffb81" stroke="black" points="1467.5,-378 1360.5,-378 1360.5,-342 1467.5,-342 1467.5,-378"/>
<text text-anchor="middle" x="1414" y="-356.3" font-family="DejaVu Sans Mono" font-size="14.00">result = &#39;&#39;</text>
</g>
<!-- 4&#45;&gt;6 -->
<g id="edge27" class="edge">
<title>4&#45;&gt;6</title>
<path fill="none" stroke="red" d="M1307.94,-414.92C1317.32,-410.97 1327.66,-406.45 1337,-402 1349.31,-396.13 1362.49,-389.32 1374.4,-382.95"/>
<polygon fill="red" stroke="red" points="1376.08,-386.02 1383.22,-378.19 1372.76,-379.86 1376.08,-386.02"/>
<text text-anchor="middle" x="1405.5" y="-390.8" font-family="DejaVu Sans Mono" font-size="14.00">(num != 0)</text>
</g>
<!-- 8 -->
<g id="node23" class="node">
<title>8</title>
<polygon fill="#ffbe52" stroke="black" points="1513.13,-277 1463.56,-295 1364.44,-295 1314.87,-277 1364.44,-259 1463.56,-259 1513.13,-277"/>
<text text-anchor="middle" x="1414" y="-273.3" font-family="DejaVu Sans Mono" font-size="14.00">while num &gt; 0:</text>
</g>
<!-- 6&#45;&gt;8 -->
<g id="edge26" class="edge">
<title>6&#45;&gt;8</title>
<path fill="none" stroke="black" d="M1414,-341.82C1414,-331.19 1414,-317.31 1414,-305.2"/>
<polygon fill="black" stroke="black" points="1417.5,-305.15 1414,-295.15 1410.5,-305.15 1417.5,-305.15"/>
</g>
<!-- 9 -->
<g id="node24" class="node">
<title>9</title>
<polygon fill="#ff6752" stroke="black" points="1094,-211.5 957.09,-193.5 1094,-175.5 1230.91,-193.5 1094,-211.5"/>
<text text-anchor="middle" x="1094" y="-189.8" font-family="DejaVu Sans Mono" font-size="14.00">if num % 2 == 0:</text>
</g>
<!-- 8&#45;&gt;9 -->
<g id="edge24" class="edge">
<title>8&#45;&gt;9</title>
<path fill="none" stroke="green" d="M1357.16,-261.52C1298.08,-246.48 1206.28,-223.1 1148.19,-208.3"/>
<polygon fill="green" stroke="green" points="1149.02,-204.9 1138.47,-205.82 1147.29,-211.68 1149.02,-204.9"/>
<text text-anchor="middle" x="1311" y="-231.8" font-family="DejaVu Sans Mono" font-size="14.00">num &gt; 0</text>
</g>
<!-- 10 -->
<g id="node28" class="node">
<title>10</title>
<polygon fill="#98fb98" stroke="black" points="1578.72,-211.5 1316.69,-211.5 1249.28,-175.5 1511.31,-175.5 1578.72,-211.5"/>
<text text-anchor="middle" x="1414" y="-189.8" font-family="DejaVu Sans Mono" font-size="14.00">return result[::&#45;1]</text>
</g>
<!-- 8&#45;&gt;10 -->
<g id="edge25" class="edge">
<title>8&#45;&gt;10</title>
<path fill="none" stroke="red" d="M1414,-258.72C1414,-248.02 1414,-234.05 1414,-221.87"/>
<polygon fill="red" stroke="red" points="1417.5,-221.76 1414,-211.76 1410.5,-221.76 1417.5,-221.76"/>
<text text-anchor="middle" x="1455.5" y="-231.8" font-family="DejaVu Sans Mono" font-size="14.00">(num &lt;= 0)</text>
</g>
<!-- 11 -->
<g id="node25" class="node">
<title>11</title>
<polygon fill="#fffb81" stroke="black" points="1156,-128 1032,-128 1032,-92 1156,-92 1156,-128"/>
<text text-anchor="middle" x="1094" y="-106.3" font-family="DejaVu Sans Mono" font-size="14.00">result += &#39;0&#39;</text>
</g>
<!-- 9&#45;&gt;11 -->
<g id="edge21" class="edge">
<title>9&#45;&gt;11</title>
<path fill="none" stroke="green" d="M1094,-175.22C1094,-164.52 1094,-150.55 1094,-138.37"/>
<polygon fill="green" stroke="green" points="1097.5,-138.26 1094,-128.26 1090.5,-138.26 1097.5,-138.26"/>
<text text-anchor="middle" x="1144" y="-147.8" font-family="DejaVu Sans Mono" font-size="14.00">num % 2 == 0</text>
</g>
<!-- 13 -->
<g id="node27" class="node">
<title>13</title>
<polygon fill="#fffb81" stroke="black" points="1298,-128 1174,-128 1174,-92 1298,-92 1298,-128"/>
<text text-anchor="middle" x="1236" y="-106.3" font-family="DejaVu Sans Mono" font-size="14.00">result += &#39;1&#39;</text>
</g>
<!-- 9&#45;&gt;13 -->
<g id="edge23" class="edge">
<title>9&#45;&gt;13</title>
<path fill="none" stroke="red" d="M1145.96,-182.23C1163.52,-177.14 1182.57,-169.7 1198,-159 1206.56,-153.07 1214.13,-144.64 1220.22,-136.51"/>
<polygon fill="red" stroke="red" points="1223.13,-138.45 1226,-128.25 1217.4,-134.43 1223.13,-138.45"/>
<text text-anchor="middle" x="1271" y="-147.8" font-family="DejaVu Sans Mono" font-size="14.00">(num % 2 != 0)</text>
</g>
<!-- 12 -->
<g id="node26" class="node">
<title>12</title>
<polygon fill="#fffb81" stroke="black" points="1281.5,-75 1190.5,-75 1190.5,-39 1281.5,-39 1281.5,-75"/>
<text text-anchor="middle" x="1236" y="-53.3" font-family="DejaVu Sans Mono" font-size="14.00">num //= 2</text>
</g>
<!-- 11&#45;&gt;12 -->
<g id="edge20" class="edge">
<title>11&#45;&gt;12</title>
<path fill="none" stroke="black" d="M1141.68,-91.88C1154.13,-87.4 1167.67,-82.54 1180.49,-77.94"/>
<polygon fill="black" stroke="black" points="1181.9,-81.15 1190.13,-74.47 1179.54,-74.56 1181.9,-81.15"/>
</g>
<!-- 12&#45;&gt;8 -->
<g id="edge19" class="edge">
<title>12&#45;&gt;8</title>
<path fill="none" stroke="black" d="M1281.79,-65.35C1368.49,-80.3 1551.23,-117.12 1588,-167 1601.98,-185.96 1601.87,-200.96 1588,-220 1568.78,-246.38 1536.91,-260.61 1505.66,-268.18"/>
<polygon fill="black" stroke="black" points="1504.56,-264.84 1495.55,-270.41 1506.07,-271.67 1504.56,-264.84"/>
</g>
<!-- 13&#45;&gt;12 -->
<g id="edge22" class="edge">
<title>13&#45;&gt;12</title>
<path fill="none" stroke="black" d="M1236,-91.73C1236,-89.66 1236,-87.5 1236,-85.32"/>
<polygon fill="black" stroke="black" points="1239.5,-85.25 1236,-75.25 1232.5,-85.25 1239.5,-85.25"/>
</g>
<!-- input -->
<g id="node29" class="node">
<title>input</title>
<polygon fill="#afeeee" stroke="black" points="1988.04,-446 1900.48,-446 1877.96,-410 1965.52,-410 1988.04,-446"/>
<text text-anchor="middle" x="1933" y="-424.3" font-family="DejaVu Sans Mono" font-size="14.00">input</text>
</g>
<!-- call -->
<g id="node34" class="node">
<title>call</title>
<polygon fill="#e552ff" stroke="black" points="1960,-378 1918,-378 1918,-382 1906,-382 1906,-342 1960,-342 1960,-378"/>
<polyline fill="none" stroke="black" points="1906,-378 1918,-378 "/>
<text text-anchor="middle" x="1933" y="-356.3" font-family="DejaVu Sans Mono" font-size="14.00">call</text>
</g>
<!-- input&#45;&gt;call -->
<!-- default -->
<g id="node30" class="node">
<title>default</title>
<polygon fill="#fffb81" stroke="black" points="1834,-378 1760,-378 1760,-342 1834,-342 1834,-378"/>
<text text-anchor="middle" x="1797" y="-356.3" font-family="DejaVu Sans Mono" font-size="14.00">default</text>
</g>
<!-- if -->
<g id="node31" class="node">
<title>if</title>
<polygon fill="#ff6752" stroke="black" points="1933,-727.5 1902.83,-709.5 1933,-691.5 1963.17,-709.5 1933,-727.5"/>
<text text-anchor="middle" x="1933" y="-705.8" font-family="DejaVu Sans Mono" font-size="14.00">if</text>
</g>
<!-- if&#45;&gt;input -->
<!-- for -->
<g id="node32" class="node">
<title>for</title>
<polygon fill="#ffbe52" stroke="black" points="1883.54,-709.5 1868.27,-727.5 1837.73,-727.5 1822.46,-709.5 1837.73,-691.5 1868.27,-691.5 1883.54,-709.5"/>
<text text-anchor="middle" x="1853" y="-705.8" font-family="DejaVu Sans Mono" font-size="14.00">for</text>
</g>
<!-- return -->
<g id="node35" class="node">
<title>return</title>
<polygon fill="#98fb98" stroke="black" points="1859.79,-446 1759.91,-446 1734.21,-410 1834.09,-410 1859.79,-446"/>
<text text-anchor="middle" x="1797" y="-424.3" font-family="DejaVu Sans Mono" font-size="14.00">return</text>
</g>
<!-- for&#45;&gt;return -->
<!-- while -->
<g id="node33" class="node">
<title>while</title>
<polygon fill="#ffbe52" stroke="black" points="1804.56,-709.5 1782.78,-727.5 1739.22,-727.5 1717.44,-709.5 1739.22,-691.5 1782.78,-691.5 1804.56,-709.5"/>
<text text-anchor="middle" x="1761" y="-705.8" font-family="DejaVu Sans Mono" font-size="14.00">while</text>
</g>
<!-- return&#45;&gt;default -->
<!-- try -->
<g id="node36" class="node">
<title>try</title>
<polygon fill="orange" stroke="black" points="1662,-727.5 1624.13,-709.5 1662,-691.5 1699.87,-709.5 1662,-727.5"/>
<polyline fill="none" stroke="black" points="1634.97,-714.65 1634.97,-704.35 "/>
<polyline fill="none" stroke="black" points="1651.16,-696.65 1672.84,-696.65 "/>
<polyline fill="none" stroke="black" points="1689.03,-704.35 1689.03,-714.65 "/>
<polyline fill="none" stroke="black" points="1672.84,-722.35 1651.16,-722.35 "/>
<text text-anchor="middle" x="1662" y="-705.8" font-family="DejaVu Sans Mono" font-size="14.00">try</text>
</g>
<!-- raise -->
<g id="node37" class="node">
<title>raise</title>
<polygon fill="#98fb98" stroke="black" points="1716.69,-433.56 1670,-446 1623.31,-433.56 1623.35,-413.44 1716.65,-413.44 1716.69,-433.56"/>
<text text-anchor="middle" x="1670" y="-424.3" font-family="DejaVu Sans Mono" font-size="14.00">raise</text>
</g>
<!-- try&#45;&gt;raise -->
</g>
</svg>
